PathFileType	4	(X/Y/Z)	Patient4_TMGait_0pt2_03_right_20.trc.trc
DataRate	CameraRate	NumFrames	NumMarkers	Units	OrigDataRate	OrigDataStartFrame	OrigNumFrames
48.275862068966	48.275862068966	4	33	mm	48.275862068966	36	       141
Frame#	Time	Sacral			L.Shoulder			Chest			R.Shoulder			Neck			R.ASIS			L.ASIS			R.Thigh.Superior			R.Thigh.Lateral			R.Thigh.Inferior			R.Patella			L.Thigh.Superior			L.Thigh.Lateral			L.Thigh.Inferior			L.Patella			L.Shank.Superior			L.Shank.Lateral			L.Shank.Inferior			R.Shank.Superior			R.Shank.Lateral			R.Shank.Inferior			R.Heel			R.Midfoot.Superior			R.Midfoot.Lateral			R.Toe			L.Heel			L.Midfoot.Lateral			L.Midfoot.Superior			L.Toe			L.Elbow			L.Wrist			R.Elbow			R.Wrist			
		X1	Y1	Z1	X2	Y2	Z2	X3	Y3	Z3	X4	Y4	Z4	X5	Y5	Z5	X6	Y6	Z6	X7	Y7	Z7	X8	Y8	Z8	X9	Y9	Z9	X10	Y10	Z10	X11	Y11	Z11	X12	Y12	Z12	X13	Y13	Z13	X14	Y14	Z14	X15	Y15	Z15	X16	Y16	Z16	X17	Y17	Z17	X18	Y18	Z18	X19	Y19	Z19	X20	Y20	Z20	X21	Y21	Z21	X22	Y22	Z22	X23	Y23	Z23	X24	Y24	Z24	X25	Y25	Z25	X26	Y26	Z26	X27	Y27	Z27	X28	Y28	Z28	X29	Y29	Z29	X30	Y30	Z30	X31	Y31	Z31	X32	Y32	Z32	X33	Y33	Z33	

36	43.675000000000	883.753465730265	1019.409567488075	555.528021642394	1131.690715090776	1428.325281199002	398.590224272859	1210.507999872921	1341.113641254754	563.535055261428	1125.306039712025	1423.857284914077	731.885959943252	1121.994532526483	1487.135289923376	553.426282822832	1105.966495017902	929.109977800620	675.619523619113	1096.997411131273	960.141926756653	399.290928229952	1156.892147414990	743.811071275340	631.478052487939	1091.793661753618	629.832889371063	699.590680085156	1165.487888281902	582.210579727313	611.979774409295	1176.072421013125	492.587452049435	618.926719452034	1107.849976736010	733.378706693811	415.007000315888	994.343803742803	628.403617948352	337.853697387699	1076.512077973586	542.086912693154	396.987372160587	1067.459423405472	469.400530652379	396.844799040433	1018.779022363540	408.573241889163	382.737716997308	902.110259218632	329.149747408187	319.003538559420	919.144308668312	200.317300577062	375.257464080614	1144.316523659529	403.239848181475	631.720445618826	1080.939631106432	304.426497028056	709.338622466109	1106.772185262945	205.920753049809	643.399410280382	963.609490612242	45.064910551173	646.529927708824	1138.853041746146	97.006642544076	651.027074877412	1058.593358814833	37.978180121463	704.952759754145	1262.178286849879	43.780947216357	658.203216270247	755.460904756593	70.368700455787	395.894919341304	833.717674490151	54.223138425282	321.748779154586	924.084290663822	102.972667770044	353.068649078595	1043.392933408921	37.536219307390	332.683128952563	1141.889692473676	1089.109011741144	250.808279001048	1346.184535501591	953.704887193174	328.318291134804	1008.940119039765	1103.949451613168	862.712704515106	1134.547671057242	878.049693757912	889.667585315355	
37	43.695714285714	885.577927771767	1020.426484642620	561.704168574911	1131.746595387124	1429.566817692702	403.337886543779	1211.845581781992	1342.408836754697	567.764638932804	1127.798850318804	1425.060286272398	736.680525975978	1122.906797290750	1488.416081046412	558.327818437843	1108.307953222427	930.037264972900	680.561381642473	1098.157746400360	961.317163092453	404.886965450919	1157.075798633248	743.212502615346	636.332498112712	1090.576279075838	629.774554510511	703.748935130799	1163.429958955303	581.764305312709	615.668800706062	1172.981524888625	492.334489656420	621.993632669125	1111.488700688715	735.737536239808	418.928518527642	999.104709481784	629.670662331750	341.468833269385	1083.329652285773	543.795041935860	399.392577178498	1074.870168794579	469.999095272669	398.199787253440	1024.351548657637	409.851693222052	384.291112341580	905.525484947531	333.588975767348	320.750088333552	920.440198052798	203.785744710178	375.267825526610	1141.146227070972	403.213187871915	634.113078313391	1077.741098337645	303.942954947419	711.034300365819	1103.251730949198	205.890534668532	644.302049666250	959.725483797267	45.060831116367	646.643587456824	1134.993201009567	96.917302176409	651.158715590787	1054.721757272612	37.956633579625	704.993298901589	1258.348469658152	43.451728130142	658.303295081420	753.840827842860	78.496708427013	395.531035318892	831.429256775756	59.243977039567	321.565498014204	923.403261225988	104.870339823072	352.536809203361	1039.890848960975	37.067016055832	332.753509009939	1133.368344264913	1088.990089992297	256.823958595769	1323.423908156520	930.244068606580	328.714226116782	1020.657077860981	1104.341387200112	873.218812846797	1157.438536401716	885.220112948014	899.838239382552	
38	43.716428571429	887.161505643819	1021.245771792226	567.693367879484	1131.371148289279	1430.624960634046	407.670614180037	1212.851532590789	1343.636646063298	571.563249584295	1130.035413499343	1426.288602977303	741.068865821390	1123.476977462205	1489.582745687302	562.782919125945	1110.442799318544	930.902373589997	685.275557209510	1099.088328001390	962.416944266761	410.259759059427	1157.171834016020	742.606323461440	640.930113350106	1089.360632742598	629.672968956826	707.676093328532	1161.391260196144	581.311895245183	619.146117523876	1169.942777388594	492.066227619553	624.871265301696	1115.828985315194	738.403954511678	422.946567829988	1005.322930342769	630.768022555652	345.090649293955	1091.818500024063	545.718242681973	402.068748928505	1084.081634867760	470.648180483874	399.760220738777	1031.589367576248	411.119568659986	385.977207371384	910.579923040425	338.404882818199	322.499220152518	922.819599735683	207.694643905777	375.276129698951	1138.009426332620	403.180684205531	636.370505118226	1074.539425183696	303.512813224623	712.622879112615	1099.732126637640	205.887619911961	645.139119927243	955.799110892681	45.121647313218	646.718578200580	1131.110333626461	96.836630635059	651.254181181857	1050.801618556209	37.960092616700	704.996049918593	1254.458290990620	43.111406657692	658.374296048525	753.060229565786	88.094162806424	395.017680665177	829.705468457019	65.328487544047	321.278100005460	923.348717574811	107.182534425523	351.961097878898	1036.371707462604	36.456120714836	332.885302664231	1124.163673471211	1088.839926121196	262.795776105745	1297.552686369821	908.321644483388	328.117563148349	1032.498607296765	1104.922848089427	883.192987033727	1180.462747998767	893.325536426221	908.819648921361	
39	43.737142857143	888.511199257677	1021.821699016172	573.522090253083	1130.548472018133	1431.462047032283	411.594189955720	1213.514399300214	1344.754782804868	574.930333160005	1131.998215167418	1427.489145687267	745.052504319157	1123.701558360946	1490.593816010872	566.795323007632	1112.407050335113	931.689480784565	689.770886731506	1099.752174407710	963.390232145432	415.377769952017	1157.294078965218	742.014796915084	645.240163476186	1088.304763072345	629.510881353740	711.339094798990	1159.539198613645	580.861242026849	622.373760695177	1167.158971957203	491.752678410630	627.513837576625	1120.804650130377	741.345270439996	427.110311597723	1012.944887105293	631.751209010773	348.731771905758	1101.857204955666	547.902968606883	405.069290955819	1094.971773047814	471.434237912271	401.594198433099	1040.427321115232	412.433442109363	387.823380446997	917.263427067212	343.623248362491	324.271223513959	926.323302339269	212.100407404103	375.312586094218	1135.056071502672	403.110059859406	638.451116192385	1071.445697794329	303.130021994597	714.070563975007	1096.267992441808	205.892765696463	645.885202133462	951.821144701975	45.252397550668	646.748560810806	1127.201013274665	96.771061532303	651.312223784903	1046.821016759235	37.997291065857	704.960475665485	1250.503577640225	42.761537668425	658.429826056095	753.272615812963	99.248263843561	394.391270179152	828.643491796509	72.581484975361	320.914773272491	923.955829626479	109.965028618276	351.372832017397	1032.802570527985	35.666494253601	333.083328938764	1114.206026981110	1088.664064079879	268.694918504065	1268.832652865191	888.497705533798	326.699976258773	1044.354417056918	1105.621013968251	892.485081910714	1203.493796925161	902.374327130471	916.480543878943	
